<svg xmlns="http://www.w3.org/2000/svg" fill="none" fill-rule="evenodd" font-size="12" viewBox="0 0 760 612" width="100%">
  <linearGradient id="a" x1="0" x2="1" y1="0" y2="0">
    <stop offset="0" stop-opacity=".3" stop-color="#33f"/>
    <stop offset=".5" stop-opacity=".3" stop-color="#fff"/>
    <stop offset="1" stop-opacity=".3" stop-color="#33f"/>
  </linearGradient>
  <linearGradient id="b" x1="0" x2="1" y1="0" y2="0">
    <stop offset="0" stop-opacity=".3" stop-color="#c60"/>
    <stop offset=".5" stop-opacity=".3" stop-color="#fff"/>
    <stop offset="1" stop-opacity=".3" stop-color="#c60"/>
  </linearGradient>
  <linearGradient id="c" x1="0" x2="1" y1="0" y2="0">
    <stop offset="0" stop-opacity=".3" stop-color="#c0c"/>
    <stop offset=".5" stop-opacity=".3" stop-color="#fff"/>
    <stop offset="1" stop-opacity=".3" stop-color="#c0c"/>
  </linearGradient>
  <linearGradient id="d" x1="0" x2="1" y1="0" y2="0">
    <stop offset="0" stop-opacity=".5" stop-color="#09c"/>
    <stop offset=".5" stop-opacity=".5" stop-color="#fff"/>
    <stop offset="1" stop-opacity=".5" stop-color="#09c"/>
  </linearGradient>
  <radialGradient id="e" cx=".5" cy=".5" r=".5">
    <stop offset="0" stop-opacity=".5" stop-color="#fff"/>
    <stop offset="1" stop-opacity=".5" stop-color="#0c0"/>
  </radialGradient>
  <radialGradient id="f" cx=".5" cy=".5" r=".5">
    <stop offset="0" stop-opacity=".5" stop-color="#fff"/>
    <stop offset="1" stop-opacity=".5" stop-color="#c60"/>
  </radialGradient>
  <radialGradient id="g" cx=".5" cy=".5" r=".5">
    <stop offset="0" stop-opacity=".5" stop-color="#fff"/>
    <stop offset="1" stop-opacity=".5" stop-color="red"/>
  </radialGradient>
  <radialGradient id="h" cx=".5" cy=".5" r=".5">
    <stop offset="0" stop-opacity=".5" stop-color="#fff"/>
    <stop offset="1" stop-opacity=".5" stop-color="#c0c"/>
  </radialGradient>
  <radialGradient id="i" cx=".5" cy=".5" r=".5">
    <stop offset="0" stop-opacity=".5" stop-color="#fff"/>
    <stop offset="1" stop-opacity=".5" stop-color="#33f"/>
  </radialGradient>
  <radialGradient id="j" cx=".5" cy=".5" r=".5">
    <stop offset="0" stop-opacity=".5" stop-color="#fff"/>
    <stop offset="1" stop-opacity=".5" stop-color="#969"/>
  </radialGradient>
  <radialGradient id="k" cx=".5" cy=".5" r=".5">
    <stop offset="0" stop-opacity=".5" stop-color="#fff"/>
    <stop offset="1" stop-opacity=".5" stop-color="#09c"/>
  </radialGradient>
  <ellipse cx="226.5" cy="218.6" fill="#ccc" rx="131.1" ry="218.6"/>
  <path fill="#ccc" d="M183 393l44 3585 43-3585zM428 0c166 0 35 175 35 306s131 306-35 306-35-175-35-306S262 0 428 0z"/>
  <circle cx="130.4" cy="568.3" r="43.7" fill="#ccc"/>
  <circle cx="437.1" cy="174.9" r="437.1" fill="url(#a)" stroke="#33f" stroke-width=".9" transform="translate(170 289)"/>
  <path d="M261 1h381v16H261z"/>
  <text x="216" y="608" fill="#000" font-style="italic" transform="translate(261 -595)">
    Red light (700 nm wavelength)
  </text>
  <path d="M221 57h421v17H221z"/>
  <text x="249" y="608" fill="#000" font-style="italic" transform="translate(221 -538)">
    Violet light (400 nm wavelength)
  </text>
  <path d="M-15 582h185v17H-15z"/>
  <text x="98" y="608" fill="#000" font-style="italic" transform="translate(-15 -13)">
    Staphylococcus
  </text>
  <path d="M-41 595h211v17H-41z"/>
  <text x="116" y="608" fill="#000" font-style="italic" transform="translate(-41)">
    aureus bacterium
  </text>
  <path d="M143 582h158v17H143z"/>
  <text x="78" y="608" fill="#000" font-style="italic" transform="translate(143 -13)">
    Spermatozoon
  </text>
  <path d="M248 595h53v17h-53z"/>
  <text x="26" y="608" fill="#000" font-style="italic" transform="translate(248)">
    head
  </text>
  <path d="M291 582h185v17H291z"/>
  <text x="108" y="608" fill="#000" font-style="italic" transform="translate(291 -13)">
    Red blood cell
  </text>
  <path d="M304 595h172v17H304z"/>
  <text x="100" y="608" fill="#000" font-style="italic" transform="translate(304)">
    cross-section
  </text>
  <path d="M470 582h172v17H470z"/>
  <text x="79" y="608" fill="#000" font-style="italic" transform="translate(470 -13)">
    Human immuno-
  </text>
  <path d="M352 595h290v17H352z"/>
  <text x="176" y="608" fill="#000" font-style="italic" transform="translate(352)">
    deficiency virus (HIV)
  </text>
  <path d="M419 422h460v17H419z"/>
  <text y="608" fill="#000" transform="translate(419 -173)">
    45 nm (2008) e.g. Core 2 (Wolfdale)
  </text>
  <path d="M455 477h565v16H455z"/>
  <text y="608" fill="#000" transform="translate(455 -119)">
    22 nm (2012) e.g. Core i7 (Ivy Bridge)
  </text>
  <path d="M436 448h486v17H436z"/>
  <text y="608" fill="#000" transform="translate(436 -147)">
    32 nm (2010) e.g. Core i3 (Clarkdale)
  </text>
  <circle cx="606.9" cy="577" r="5.2" fill="#999"/>
  <path fill="#000" d="M91 26h511z"/>
  <path d="M91 26h511z"/>
  <path stroke="#33f" stroke-width=".9" d="M91 26h511"/>
  <path fill="#000" d="M126 118h476z"/>
  <path d="M126 118h476z"/>
  <path stroke="#c60" stroke-width=".9" d="M126 118h476"/>
  <circle cx="131.1" cy="480.9" r="131.1" fill="url(#b)" stroke="#c60" stroke-width=".9" transform="translate(476 -232)"/>
  <path fill="#000" d="M187 170h415z"/>
  <path d="M187 170h415z"/>
  <path stroke="#c0c" stroke-width=".9" d="M187 170h415"/>
  <circle cx="65.6" cy="546.4" r="65.6" fill="url(#c)" stroke="#c0c" stroke-width=".9" transform="translate(541 -311)"/>
  <path fill="#000" d="M213 201h389z"/>
  <path d="M213 201h389z"/>
  <path stroke="#33f" stroke-width=".9" d="M213 201h389"/>
  <circle cx="43.7" cy="568.3" r="43.7" fill="url(#a)" stroke="#33f" stroke-width=".9" transform="translate(563 -323)"/>
  <path fill="#000" d="M248 218h354z"/>
  <path d="M248 218h354z"/>
  <path stroke="#09c" stroke-width=".9" d="M248 218h354"/>
  <circle cx="35" cy="577" r="35" fill="url(#d)" stroke="#09c" stroke-width=".9" transform="translate(572 -324)"/>
  <path fill="#000" d="M292 240h310z"/>
  <path d="M292 240h310z"/>
  <path stroke="#0c0" stroke-width=".9" d="M292 240h310"/>
  <circle cx="26.2" cy="585.8" r="26.2" fill="url(#e)" stroke="#0c0" stroke-width=".9" transform="translate(581 -320)"/>
  <path fill="#000" d="M301 281h301z"/>
  <path d="M301 281h301z"/>
  <path stroke="#c60" stroke-width=".9" d="M301 281h301"/>
  <circle cx="15.3" cy="596.7" r="15.3" fill="url(#f)" stroke="#c60" stroke-width=".9" transform="translate(592 -301)"/>
  <path fill="#000" d="M327 306h275z"/>
  <path d="M327 306h275z"/>
  <path stroke="red" stroke-width=".9" d="M327 306h275"/>
  <circle cx="10.9" cy="601.1" r="10.9" fill="url(#g)" stroke="red" stroke-width=".9" transform="translate(596 -284)"/>
  <path fill="#000" d="M336 331h266z"/>
  <path d="M336 331h266z"/>
  <path stroke="#c0c" stroke-width=".9" d="M336 331h266"/>
  <circle cx="7.9" cy="604.1" r="7.9" fill="url(#h)" stroke="#c0c" stroke-width=".9" transform="translate(599 -265)"/>
  <path fill="#000" d="M345 356h257z"/>
  <path d="M345 356h257z"/>
  <path stroke="#33f" stroke-width=".9" d="M345 356h257"/>
  <circle cx="5.7" cy="606.3" r="5.7" fill="url(#i)" stroke="#33f" stroke-width=".9" transform="translate(601 -245)"/>
  <path fill="#000" d="M362 384h240z"/>
  <path d="M362 384h240z"/>
  <path stroke="#969" stroke-width=".9" d="M362 384h240"/>
  <circle cx="3.9" cy="608.1" r="3.9" fill="url(#j)" stroke="#969" stroke-width=".9" transform="translate(603 -220)"/>
  <path fill="#000" d="M397 409h205z"/>
  <path d="M397 409h205z"/>
  <path stroke="#09c" stroke-width=".9" d="M397 409h205"/>
  <circle cx="2.8" cy="609.2" r="2.8" fill="url(#k)" stroke="#09c" stroke-width=".9" transform="translate(604 -198)"/>
  <path fill="#000" d="M415 437h187z"/>
  <path d="M415 437h187z"/>
  <path stroke="#0c0" stroke-width=".9" d="M415 437h187"/>
  <circle cx="2" cy="610" r="2" fill="url(#e)" stroke="#0c0" stroke-width=".9" transform="translate(605 -171)"/>
  <path fill="#000" d="M432 462h170z"/>
  <path d="M432 462h170z"/>
  <path stroke="#c60" stroke-width=".9" d="M432 462h170"/>
  <circle cx="1.4" cy="610.6" r="1.4" fill="url(#f)" stroke="#c60" stroke-width=".9" transform="translate(605 -147)"/>
  <path fill="#000" d="M448 491h154z"/>
  <path d="M448 491h154z"/>
  <path stroke="red" stroke-width=".9" d="M448 491h154"/>
  <circle cx="1" cy="611" r="1" fill="url(#g)" stroke="red" stroke-width=".9" transform="translate(606 -119)"/>
  <path fill="#000" d="M467 522h135z"/>
  <path d="M467 522h135z"/>
  <path stroke="#c0c" stroke-width=".9" d="M467 522h135"/>
  <circle cx=".7" cy="611.3" r=".7" fill="url(#h)" stroke="#c0c" stroke-width=".9" transform="translate(606 -89)"/>
  <path fill="#000" d="M495 551h107z"/>
  <path d="M495 551h107z"/>
  <path stroke="#33f" stroke-width=".9" d="M495 551h107"/>
  <circle cx=".5" cy="611.5" r=".5" fill="url(#i)" stroke="#33f" stroke-width=".9" transform="translate(606 -60)"/>
  <path fill="#000" d="M91 551V26zm9 0V26zm9 0V26zm8 0V26z"/>
  <path d="M91 551V26zm9 0V26zm9 0V26zm8 0V26z"/>
  <path stroke="#000" stroke-opacity=".3" stroke-width=".9" d="M91 551V26m9 525V26m9 525V26m8 525V26"/>
  <path fill="#000" d="M126 551V26z"/>
  <path d="M126 551V26z"/>
  <path stroke="#000" stroke-opacity=".1" stroke-width=".9" d="M126 551V26"/>
  <path fill="#000" d="M135 551V26zm8 0V26zm9 0V26zm9 0V26z"/>
  <path d="M135 551V26zm8 0V26zm9 0V26zm9 0V26z"/>
  <path stroke="#000" stroke-opacity=".3" stroke-width=".9" d="M135 551V26m8 525V26m9 525V26m9 525V26"/>
  <path fill="#000" d="M170 551V26z"/>
  <path d="M170 551V26z"/>
  <path stroke="#000" stroke-opacity=".1" stroke-width=".9" d="M170 551V26"/>
  <path fill="#000" d="M178 551V26zm9 0V26zm9 0V26zm9 0V26z"/>
  <path d="M178 551V26zm9 0V26zm9 0V26zm9 0V26z"/>
  <path stroke="#000" stroke-opacity=".3" stroke-width=".9" d="M178 551V26m9 525V26m9 525V26m9 525V26"/>
  <path fill="#000" d="M213 551V26z"/>
  <path d="M213 551V26z"/>
  <path stroke="#000" stroke-opacity=".1" stroke-width=".9" d="M213 551V26"/>
  <path fill="#000" d="M222 551V26zm9 0V26zm9 0V26zm8 0V26z"/>
  <path d="M222 551V26zm9 0V26zm9 0V26zm8 0V26z"/>
  <path stroke="#000" stroke-opacity=".3" stroke-width=".9" d="M222 551V26m9 525V26m9 525V26m8 525V26"/>
  <path fill="#000" d="M257 551V26z"/>
  <path d="M257 551V26z"/>
  <path stroke="#000" stroke-opacity=".1" stroke-width=".9" d="M257 551V26"/>
  <path fill="#000" d="M266 551V26zm9 0V26zm8 0V26zm9 0V26z"/>
  <path d="M266 551V26zm9 0V26zm8 0V26zm9 0V26z"/>
  <path stroke="#000" stroke-opacity=".3" stroke-width=".9" d="M266 551V26m9 525V26m8 525V26m9 525V26"/>
  <path fill="#000" d="M301 551V26z"/>
  <path d="M301 551V26z"/>
  <path stroke="#000" stroke-opacity=".1" stroke-width=".9" d="M301 551V26"/>
  <path fill="#000" d="M310 551V26zm8 0V26zm9 0V26zm9 0V26z"/>
  <path d="M310 551V26zm8 0V26zm9 0V26zm9 0V26z"/>
  <path stroke="#000" stroke-opacity=".3" stroke-width=".9" d="M310 551V26m8 525V26m9 525V26m9 525V26"/>
  <path fill="#000" d="M345 551V26z"/>
  <path d="M345 551V26z"/>
  <path stroke="#000" stroke-opacity=".1" stroke-width=".9" d="M345 551V26"/>
  <path fill="#000" d="M353 551V26zm9 0V26zm9 0V26zm9 0V26z"/>
  <path d="M353 551V26zm9 0V26zm9 0V26zm9 0V26z"/>
  <path stroke="#000" stroke-opacity=".3" stroke-width=".9" d="M353 551V26m9 525V26m9 525V26m9 525V26"/>
  <path fill="#000" d="M388 551V26z"/>
  <path d="M388 551V26z"/>
  <path stroke="#000" stroke-opacity=".1" stroke-width=".9" d="M388 551V26"/>
  <path fill="#000" d="M397 551V26zm9 0V26zm9 0V26zm8 0V26z"/>
  <path d="M397 551V26zm9 0V26zm9 0V26zm8 0V26z"/>
  <path stroke="#000" stroke-opacity=".3" stroke-width=".9" d="M397 551V26m9 525V26m9 525V26m8 525V26"/>
  <path fill="#000" d="M432 551V26z"/>
  <path d="M432 551V26z"/>
  <path stroke="#000" stroke-opacity=".1" stroke-width=".9" d="M432 551V26"/>
  <path fill="#000" d="M441 551V26zm8 0V26zm9 0V26zm9 0V26z"/>
  <path d="M441 551V26zm8 0V26zm9 0V26zm9 0V26z"/>
  <path stroke="#000" stroke-opacity=".3" stroke-width=".9" d="M441 551V26m8 525V26m9 525V26m9 525V26"/>
  <path fill="#000" d="M476 551V26z"/>
  <path d="M476 551V26z"/>
  <path stroke="#000" stroke-opacity=".1" stroke-width=".9" d="M476 551V26"/>
  <path fill="#000" d="M82 498h420zm0-31h420zm0-21h420zm0-17h420zm0-14h420zm0-12h420zm0-10h420zm0-9h420zm0-8h420z"/>
  <path d="M82 498h420zm0-31h420zm0-21h420zm0-17h420zm0-14h420zm0-12h420zm0-10h420zm0-9h420zm0-8h420z"/>
  <path stroke="#000" stroke-opacity=".3" stroke-width=".9" d="M82 498h420M82 467h420M82 446h420M82 429h420M82 415h420M82 403h420M82 393h420m-420-9h420m-420-8h420"/>
  <path fill="#000" d="M82 323h420zm0-30h420zm0-22h420zm0-17h420zm0-14h420zm0-12h420zm0-10h420zm0-9h420zm0-8h420z"/>
  <path d="M82 323h420zm0-30h420zm0-22h420zm0-17h420zm0-14h420zm0-12h420zm0-10h420zm0-9h420zm0-8h420z"/>
  <path stroke="#000" stroke-opacity=".3" stroke-width=".9" d="M82 323h420M82 293h420M82 271h420M82 254h420M82 240h420M82 228h420M82 218h420m-420-9h420m-420-8h420"/>
  <path fill="#000" d="M82 148h420zm0-30h420zm0-22h420zm0-17h420zm0-14h420zm0-12h420zm0-10h420zm0-9h420zm0-8h420z"/>
  <path d="M82 148h420zm0-30h420zm0-22h420zm0-17h420zm0-14h420zm0-12h420zm0-10h420zm0-9h420zm0-8h420z"/>
  <path stroke="#000" stroke-opacity=".3" stroke-width=".9" d="M82 148h420M82 118h420M82 96h420M82 79h420M82 65h420M82 53h420M82 43h420M82 34h420M82 26h420"/>
  <path d="M82 26v525h420z"/>
  <path d="M82 26v525h420z"/>
  <path stroke="#000" stroke-opacity=".3" stroke-width=".9" d="M82 26v525h420"/>
  <path d="M56 556h53v16H56z"/>
  <text x="13" y="608" fill="#000" transform="translate(56 -40)">
    1970
  </text>
  <path d="M143 556h53v16h-53z"/>
  <text x="13" y="608" fill="#000" transform="translate(143 -40)">
    1980
  </text>
  <path d="M230 556h54v16h-54z"/>
  <text x="13" y="608" fill="#000" transform="translate(230 -40)">
    1990
  </text>
  <path d="M318 556h53v16h-53z"/>
  <text x="13" y="608" fill="#000" transform="translate(318 -40)">
    2000
  </text>
  <path d="M405 556h54v16h-54z"/>
  <text x="13" y="608" fill="#000" transform="translate(405 -40)">
    2010
  </text>
  <path d="M23 538h66v17H23z"/>
  <text x="16" y="608" fill="#000" transform="translate(23 -57)">
    10 nm
  </text>
  <path d="M16 363h80v17H16z"/>
  <text x="19" y="608" fill="#000" transform="translate(16 -232)">
    100 nm
  </text>
  <path d="M29 188h54v17H29z"/>
  <text x="13" y="608" fill="#000" transform="translate(29 -407)">
    1 µm
  </text>
  <path d="M23 14h66v16H23z"/>
  <text x="16" y="608" fill="#000" transform="translate(23 -582)">
    10 µm
  </text>
  <path d="M581 13c11 0 19 44 30 44s20-44 31-44z"/>
  <path d="M581 13c11 0 19 44 30 44s20-44 31-44z"/>
  <path stroke="red" stroke-width="1.3" d="M581 13c11 0 19 44 30 44s20-44 31-44"/>
  <path d="M519 13c12 0 20 44 31 44s19-44 31-44z"/>
  <path d="M519 13c12 0 20 44 31 44s19-44 31-44z"/>
  <path stroke="red" stroke-width="1.3" d="M519 13c12 0 20 44 31 44s19-44 31-44"/>
  <path d="M458 13c11 0 20 44 31 44s19-44 30-44z"/>
  <g>
    <path d="M458 13c11 0 20 44 31 44s19-44 30-44z"/>
    <path stroke="red" stroke-width="1.3" d="M458 13c11 0 20 44 31 44s19-44 30-44"/>
  </g>
  <path d="M397 13c11 0 19 44 31 44s19-44 30-44z"/>
  <g>
    <path d="M397 13c11 0 19 44 31 44s19-44 30-44z"/>
    <path stroke="red" stroke-width="1.3" d="M397 13c11 0 19 44 31 44s19-44 30-44"/>
  </g>
  <path d="M336 13c11 0 19 44 30 44s20-44 31-44z"/>
  <g>
    <path d="M336 13c11 0 19 44 30 44s20-44 31-44z"/>
    <path stroke="red" stroke-width="1.3" d="M336 13c11 0 19 44 30 44s20-44 31-44"/>
  </g>
  <path d="M607 70c6 0 11 44 17 44 7 0 11-44 18-44z"/>
  <g>
    <path d="M607 70c6 0 11 44 17 44 7 0 11-44 18-44z"/>
    <path stroke="#c0f" d="M607 70c6 0 11 44 17 44 7 0 11-44 18-44"/>
  </g>
  <path d="M572 70c6 0 11 44 17 44 7 0 11-44 18-44z"/>
  <g>
    <path d="M572 70c6 0 11 44 17 44 7 0 11-44 18-44z"/>
    <path stroke="#c0f" d="M572 70c6 0 11 44 17 44 7 0 11-44 18-44"/>
  </g>
  <path d="M537 70c6 0 11 44 17 44 7 0 12-44 18-44z"/>
  <g>
    <path d="M537 70c6 0 11 44 17 44 7 0 12-44 18-44z"/>
    <path stroke="#c0f" d="M537 70c6 0 11 44 17 44 7 0 12-44 18-44"/>
  </g>
  <path d="M502 70c6 0 11 44 17 44 7 0 12-44 18-44z"/>
  <g>
    <path d="M502 70c6 0 11 44 17 44 7 0 12-44 18-44z"/>
    <path stroke="#c0f" d="M502 70c6 0 11 44 17 44 7 0 12-44 18-44"/>
  </g>
  <path d="M467 70c6 0 11 44 17 44 7 0 12-44 18-44z"/>
  <g>
    <path d="M467 70c6 0 11 44 17 44 7 0 12-44 18-44z"/>
    <path stroke="#c0f" d="M467 70c6 0 11 44 17 44 7 0 12-44 18-44"/>
  </g>
  <circle cx="91" cy="26.2" r="3.5" fill="#000" stroke="#000" stroke-width="1.7"/>
  <g>
    <path d="M95 12h368v17H95z"/>
    <text y="608" fill="#000" transform="translate(95 -583)">
      10 µm (1971) e.g. Intel 8008
    </text>
  </g>
  <circle cx="126" cy="117.7" r="3.5" fill="#000" stroke="#000" stroke-width="1.7"/>
  <g>
    <path d="M130 103h355v17H130z"/>
    <text y="608" fill="#000" transform="translate(130 -492)">
      3 µm (1975) e.g. Intel 8088
    </text>
  </g>
  <circle cx="187.2" cy="170.3" r="3.5" fill="#000" stroke="#000" stroke-width="1.7"/>
  <g>
    <path d="M192 156h394v17H192z"/>
    <text y="608" fill="#000" transform="translate(192 -439)">
      1.5 µm (1982) e.g. Intel 80286
    </text>
  </g>
  <circle cx="213.4" cy="201.1" r="3.5" fill="#000" stroke="#000" stroke-width="1.7"/>
  <g>
    <path d="M218 187h368v17H218z"/>
    <text y="608" fill="#000" transform="translate(218 -408)">
      1 µm (1985) e.g. Intel 80386
    </text>
  </g>
  <circle cx="248.4" cy="218" r="3.5" fill="#000" stroke="#000" stroke-width="1.7"/>
  <g>
    <path d="M253 204h473v16H253z"/>
    <text y="608" fill="#000" transform="translate(253 -392)">
      800 nm (1989) e.g. P5 Pentium 60 MHz
    </text>
  </g>
  <circle cx="292.1" cy="239.9" r="3.5" fill="#000" stroke="#000" stroke-width="1.7"/>
  <g>
    <path d="M296 226h513v16H296z"/>
    <text y="608" fill="#000" transform="translate(296 -370)">
      600 nm (1994) e.g. Motorola PowerPC 601
    </text>
  </g>
  <circle cx="300.9" cy="280.8" r="3.5" fill="#000" stroke="#000" stroke-width="1.7"/>
  <g>
    <path d="M305 266h486v17H305z"/>
    <text y="608" fill="#000" transform="translate(305 -329)">
      350 nm (1995) e.g. Pentium II Klamath
    </text>
  </g>
  <circle cx="327.1" cy="306.4" r="3.5" fill="#000" stroke="#000" stroke-width="1.7"/>
  <g>
    <path d="M331 292h355v17H331z"/>
    <text y="608" fill="#000" transform="translate(331 -303)">
      250 nm (1998) e.g. AMD K6-2
    </text>
  </g>
  <circle cx="335.8" cy="331.4" r="3.5" fill="#000" stroke="#000" stroke-width="1.7"/>
  <g>
    <path d="M340 317h408v17H340z"/>
    <text y="608" fill="#000" transform="translate(340 -278)">
      180 nm (1999) e.g. Coppermine E
    </text>
  </g>
  <circle cx="344.6" cy="356" r="3.5" fill="#000" stroke="#000" stroke-width="1.7"/>
  <g>
    <path d="M349 342h407v16H349z"/>
    <text y="608" fill="#000" transform="translate(349 -254)">
      130 nm (2000) e.g. PowerPC 7447
    </text>
  </g>
  <circle cx="362.1" cy="384" r="3.5" fill="#000" stroke="#000" stroke-width="1.7"/>
  <g>
    <path d="M366 370h316v16H366z"/>
    <text y="608" fill="#000" transform="translate(366 -226)">
      90 nm (2002) e.g. VIA C7
    </text>
  </g>
  <circle cx="397" cy="408.6" r="3.5" fill="#000" stroke="#000" stroke-width="1.7"/>
  <g>
    <path d="M401 394h342v17H401z"/>
    <text y="608" fill="#000" transform="translate(401 -201)">
      65 nm (2006) e.g. Core Duo
    </text>
  </g>
  <g fill="#000" stroke="#000" stroke-width="1.7">
    <circle cx="414.5" cy="436.6" r="3.5"/>
    <circle cx="432" cy="462.5" r="3.5"/>
    <circle cx="449.3" cy="491" r="3.5"/>
    <circle cx="467.3" cy="521.9" r="3.5"/>
    <circle cx="493.8" cy="550.2" r="3.5"/>
  </g>
  <g>
    <path d="M92 29l33 85z"/>
    <path stroke="#000"  stroke-width="2.3" d="M92 29l33 85"/>
  </g>
  <g>
    <path d="M325 304l-22-21z"/>
    <path stroke="#000"  stroke-width="2.3" d="M325 304l-22-21"/>
  </g>
  <g>
    <path d="M129 120l56 48z"/>
    <path stroke="#000"  stroke-width="2.3" d="M129 120l56 48"/>
  </g>
  <g>
    <path d="M189 173l22 25z"/>
    <path stroke="#000"  stroke-width="2.3" d="M189 173l22 25"/>
  </g>
  <g>
    <path d="M245 217l-28-14z"/>
    <path stroke="#000"  stroke-width="2.3" d="M245 217l-28-14"/>
  </g>
  <g>
    <path d="M252 220l37 18z"/>
    <path stroke="#000"  stroke-width="2.3" d="M252 220l37 18"/>
  </g>
  <g>
    <path d="M293 243l7 34z"/>
    <path stroke="#000"  stroke-width="2.3" d="M293 243l7 34"/>
  </g>
  <g>
    <path d="M470 524l21 24z"/>
    <path stroke="#000"  stroke-width="2.3" d="M470 524l21 24"/>
  </g>
  <g>
    <path d="M328 310l7 18z"/>
    <path stroke="#000"  stroke-width="2.3" d="M328 310l7 18"/>
  </g>
  <g>
    <path d="M337 335l6 18z"/>
    <path stroke="#000"  stroke-width="2.3" d="M337 335l6 18"/>
  </g>
  <g>
    <path d="M346 359l14 22z"/>
    <path stroke="#000"  stroke-width="2.3" d="M346 359l14 22"/>
  </g>
  <g>
    <path d="M365 386l29 21z"/>
    <path stroke="#000"  stroke-width="2.3" d="M365 386l29 21"/>
  </g>
  <g>
    <path d="M399 412l14 22z"/>
    <path stroke="#000"  stroke-width="2.3" d="M399 412l14 22"/>
  </g>
  <g>
    <path d="M416 440l14 20z"/>
    <path stroke="#000"  stroke-width="2.3" d="M416 440l14 20"/>
  </g>
  <g>
    <path d="M434 465l14 23z"/>
    <path stroke="#000"  stroke-width="2.3" d="M434 465l14 23"/>
  </g>
  <g>
    <path d="M451 494l15 25z"/>
    <path stroke="#000"  stroke-width="2.3" d="M451 494l15 25"/>
  </g>
  <path fill="#000" d="M476 551V27zm9 0V27zm8 0V27zm9 0V27z"/>
  <g>
    <path d="M476 551V27zm9 0V27zm8 0V27zm9 0V27z"/>
    <path stroke="#000" stroke-opacity=".3" stroke-width=".9" d="M476 551V27m9 524V27m8 524V27m9 524V27"/>
  </g>
  <g>
    <path d="M473 508h262v17H473z"/>
    <text y="608" fill="#000" transform="translate(473 -87)">
      14 nm (2014) e.g. Core M (Broadwell)
    </text>
  </g>
  <g>
    <path d="M501 537h215v17H501z"/>
    <text y="608" fill="#000" transform="translate(501 -58)">
      10 nm (2017)
    </text>
  </g>
  <circle cx="494" cy="550" r="3.5" fill="#fff" stroke="#000" stroke-width="1.7"/>
</svg>
