<svg xmlns="http://www.w3.org/2000/svg" viewBox="384 -181 599 530" color="currentColor">
<path stroke="currentColor" fill="none" stroke-width="16" d="M939 226c151-333-219-477-422-354-105 64-112 120-125 199"/>
<path stroke="currentColor" fill="none" stroke-width="8" d="M814 263c84-42 155-119 131-218C927-33 874-98 804-134"/>
<circle cx="465" cy="-13" r="16"/>
<ellipse cx="795" cy="180" rx="43" ry="66"/>
<ellipse cx="497" cy="115" rx="74" ry="27"/>
<ellipse transform="rotate(133 655 148)" cx="640" cy="185" rx="58" ry="112"/>
<ellipse transform="rotate(119 491 26)" cx="490" cy="26" rx="43" ry="16"/>
<ellipse transform="rotate(29 518 88)" cx="518" cy="88" rx="43" ry="16"/>
<ellipse transform="rotate(40 822 290)" cx="822" cy="290" rx="27" ry="74"/>
<ellipse transform="rotate(29 453 50)" cx="452" cy="50" rx="43" ry="16"/>
<ellipse transform="rotate(-32 508 -65)" cx="507" cy="-65" rx="21" ry="8"/>
<ellipse transform="rotate(25 461 22)" cx="460" cy="22" rx="21" ry="8"/>
<ellipse transform="rotate(18 459 81)" cx="459" cy="81" rx="34" ry="4"/>
<ellipse transform="rotate(-13 401 86)" cx="401" cy="86" rx="16" ry="30"/>
<ellipse transform="rotate(-13 879 88)" cx="879" cy="88" rx="53" ry="87"/>
<ellipse transform="rotate(39 809 18)" cx="809" cy="18" rx="41" ry="94"/>
<ellipse transform="rotate(117 724 -86)" cx="724" cy="-86" rx="36" ry="59"/>
<ellipse transform="rotate(88 623 -78)" cx="623" cy="-78" rx="36" ry="59"/>
<ellipse transform="rotate(31 554 2)" cx="554" cy="2" rx="36" ry="62"/>
<ellipse transform="rotate(71 638 -43)" cx="638" cy="-43" rx="41" ry="94"/>
<ellipse transform="rotate(112 732 -18)" cx="732" cy="-18" rx="36" ry="62"/>
<ellipse transform="rotate(36 781 -76)" cx="781" cy="-76" rx="16" ry="30"/>
<ellipse transform="rotate(21 807 -52)" cx="807" cy="-52" rx="8" ry="30"/>
<ellipse transform="rotate(5 548 -75)" cx="548" cy="-75" rx="10" ry="23"/>
<ellipse transform="rotate(-49 488 -32)" cx="488" cy="-32" rx="8" ry="17"/>
<ellipse transform="rotate(70 530 -54)" cx="530" cy="-54" rx="10" ry="23"/>
<ellipse transform="rotate(25 913 274)" cx="912" cy="274" rx="25" ry="73"/>
</svg>
