<svg xmlns="http://www.w3.org/2000/svg" viewBox="0 0 48 60">
  <path d="M48 28.5L45.4 27l.4-.7c.6-1.1.2-2.4-.9-3L26.6 13.2c-.1.2-.2.5-.3.7l-5.8 10.5c-.1.2-.3.4-.4.6l4.5 2.5-8.3 18.1c-.4.9 0 1.9.8 2.3.9.4 1.9 0 2.3-.8l6.3-13.6v11c0 .9.8 1.7 1.7 1.7s1.7-.8 1.7-1.7v-11L35.3 47c.8 1.4 2 .9 2.3.8.9-.4 1.2-1.4.8-2.3l-6.5-14.1 6.5 3.6c1.1.6 2.4.2 3-.9l.4-.7 2.7 1.5 3.5-6.4zM18.6 23.3l5.8-10.5c.6-1.1.2-2.4-.9-3l-5.4-3-8 14.3 5.4 3c1.1.6 2.5.2 3.1-.8zM15.6 2.6L11.3.2c-1-.5-2.2-.2-2.7.8L.2 16.1c-.5 1-.2 2.2.8 2.7l4.3 2.4c1 .5 2.2.2 2.7-.8l8.4-15.1c.5-.9.2-2.1-.8-2.7z"/>
</svg>
