<svg xmlns="http://www.w3.org/2000/svg" viewBox="0 0 72 90">
  <path d="M10.5 60.7c.6.6 1.6.5 2-.3 4.2-8.6 13.1-14.5 23.5-14.5s19.3 5.9 23.5 14.5c.4.8 1.4.9 2 .3 6.6-6.8 10.5-16.2 10-26.5-.9-17.8-15.2-32.4-33-33.6C17.8-.8.5 15.6.5 36c0 9.6 3.8 18.3 10 24.7zM36 13.4c7.1 0 12.8 5.6 12.8 12.6 0 6.9-5.7 12.6-12.8 12.6-7.1 0-12.8-5.6-12.8-12.6S28.9 13.4 36 13.4zM36 71.5z"/>
  <text y="87" font-size="5" font-weight="bold" font-family="'Helvetica Neue', Helvetica, Arial-Unicode, Arial, Sans-serif">
    Created by Creative Stall
  </text>
  <text y="92" font-size="5" font-weight="bold" font-family="'Helvetica Neue', Helvetica, Arial-Unicode, Arial, Sans-serif">
    from the Noun Project
  </text>
</svg>
