<svg viewBox="860 -736 613 554" xmlns="http://www.w3.org/2000/svg">
  <path d="M1381-277c7-16 10-33 24-46 16-15 25-10 36-33 15-33 15-76 16-111 2-54-5-91-35-135-45-67-95-104-173-118-87-16-197 13-271 59a238 238 0 00-101 195c3 42-20 9-17-16 4-38 32-96 52-128 53-86 178-118 272-125 76-6 136 11 192 60 28 26 54 53 73 87 24 42 26 96 23 144-3 46-11 93-37 131-14 20-51 83-65 127-23 2-2-61 11-90z"/>
  <path d="M1295-185c-5-38-28-60 5-92 19-17 77-19 86-45-12 33-47 59-61 93-8 19-13 43-30 44zm-37-411c14 14 52-52 52-53-2 2-5 52-1 58 19-19 11-39 45-26 32 12 8 32 11 35 11 17 20-5 15 23 3-4 24 16 27 20 7 10 0 15 3 24 0 1 40 105 2 98 2 1 5-25 3-28 4 8-28 13-25 20 6 6 35 22 20 35 36-32 25-88 16-128-6-24-13-81 11-24 16 39 17 111-7 147-4 5-62 45-64 43 2 3 31-56 7-56-12 1 2 27-6 31-3 1-52-50-39-45-3-16-31-11-23-39 3-9 31-12 35-28 5 4-51 15-55 18-67 42-35-14-37-37-5-38-60-48-89-49-28-1-85 6-102 32-18 27 10 53 39 50 22-3 38-33 59-37 28-5 14 8 11 12 41 117 64 41 57 215-21-6-41-44-22-61-42 19-77-53-34-73-21-44-106 19-84-17 5-22 13-14-57-64-4 27 67 63-3 46-63-69-5-34-18-89-18-2-11 59-39 49-13-5 10-38 12-38-28-2 36-44 40-47 13-8 44-29 47-43s-22-8-11-29c2-5 44-15 48-16 16-1 20 1 35 5 6-3 12-5 19-4 1 6 3 11 8 14-3-34 16-31 42-28 16 2 31 6 45 14 11 7 22 32 26 25 8-19 21-40 19-10-3 31-41 53-39 55z"/>
  <path d="M1309-345c9-4-6 25-8 27-15 13-8-33-25 0l-11-5 7 19c-8 16-18-24-17-20-3-10 3-18 2-28-1-20-8-24-14-43-9-29-8-29 12-29 3-11 9-38 27-27 13 9-6 28 5 34 0 0 10-43 18-31 3 6 4 24 2 26l9-1c6 8-24 29-22 32 1 4 25-16 28-16 7 0-2 29-3 29 11 0 14-26 22 1 2 9-21 8-22 16 2 6 16-2 18-1-2 0-14 43-31 20l1-2zm-329-68c-20-3 10-8 10-16 0-5-19-7-19 8-1 17-55-22-52-39 0-2 26 3 9-14-3-10 11-8 42 30 11-18-44-39-44-48-6-12 118 9 125 72-17 1-52 11-72 8zm-66-65c5 2 1 44-16 25-17-20 2-110 9-105s-10 72 7 80zm185 81c-4-1-11-5-12-17-1-13 17 11 23-9 7-7 62 82 56 104-51-52-36-101-67-78zM966-601c7-5 9 11 13 10 7-1 15-1 24-7 6-4 7-12 15-18 3-3 16-4 16-5 5-9-12-26 5-27 21-2 11 29 3 36-7 7-14 3-22 9-6 4-32 27-36 26-5-1-25-20-19-24zm413 246c7-10 19-24 32-18 6 3-40 47-47 48l15-30zm-243 43c6-18 55 8 55 19 0 8-55-19-55-19zM953-557c-12-2 1-36 17-21 3 3 13 4 13 4s-10 13-30 17zm339-141c-1-4 68 23 68 39-32-19-65-18-68-39zm22 405c-16-1 12-16 45-31 17 10-44 31-45 31z"/>
  <path d="M1339-335c8-17 30-13 25-4-5 3-50 46-25 4zM942-628s-23 61-33 53c0 0 27-57 33-53zm-17 121c15 2 2-22 3-23 10-6 17 9 17 9s7 18-20 14zm77-105c-21-3 6-29 20-17 6 4-17 17-20 17-3-1 2 0 0 0zm-57 74c-3-13 24-2 23 9 0 0-22-4-23-9z"/>
  <path d="M945-521c8-1 24 20 14 25-7 4-16-21-6-11l-8-14zm420-105c2-2 28 19 22 20-7 1-27-15-22-20z"/>
</svg>