<svg xmlns="http://www.w3.org/2000/svg" viewBox="0 0 100 125">
  <path d="M17.3675 69.8392L69.693 17.5138l11.3137 11.3136L28.681 81.1528zM11.1 81.9l5.6 5.6 9.2-3.5-11.3-11.3zM7.5 91.1l5.7-1.5-4.3-4.2zM75.3869 11.8078l11.3136 11.3136-2.8284 2.8284-11.3136-11.3136zM93.8 16.1c2.3-2.3 2.3-6.1 0-8.5L91 4.8c-2.3-2.3-6.1-2.3-8.5 0L78.2 9l11.3 11.3 4.3-4.2zM15.7 25.7l20.1 20.1 11.3-11.3L27 14.4c-.1-2.7-1.1-5.4-3.2-7.4-4.3-4.3-11.3-4.3-15.6 0-4.3 4.3-4.3 11.3 0 15.6 2.1 1.9 4.8 3 7.5 3.1zm-4.6-16C13.8 7 18.3 7 21 9.7s2.7 7.2 0 9.9-7.2 2.7-9.9 0c-2.8-2.7-2.8-7.1 0-9.9zM93.1 71.3c-3.6-3.6-8.5-4.9-13.1-4L64.1 51.5 52.8 62.8l15.8 15.8c-.9 4.6.4 9.6 4 13.1 3.6 3.6 8.5 4.9 13.1 4l-8.9-8.9 1.3-5.5.8-3.7 3.7-.8 5.5-1.3 8.9 8.9c1-4.6-.4-9.6-3.9-13.1z"/>
</svg>
