<svg xmlns="http://www.w3.org/2000/svg" version="1.1" width="1024" height="1024">
<rect x="0" y="0" width="1024" height="1024" fill="#b0897a" />
<g transform="scale(4.000000) translate(0.5 0.5)">
<polygon fill="#301336" fill-opacity="0.501961" points="271,88 30,129 72,-4" />
<polygon fill="#ffd8c6" fill-opacity="0.501961" points="271,183 152,271 134,52" />
<polygon fill="#ffffbd" fill-opacity="0.501961" points="-16,5 79,-16 18,111" />
<polygon fill="#020008" fill-opacity="0.501961" points="163,64 271,53 228,133" />
<polygon fill="#ffffc4" fill-opacity="0.501961" points="148,3 257,-16 271,71" />
<polygon fill="#000000" fill-opacity="0.501961" points="199,152 222,220 188,202" />
<polygon fill="#46354c" fill-opacity="0.501961" points="-16,242 4,183 176,271" />
<polygon fill="#000004" fill-opacity="0.501961" points="78,84 -2,110 70,133" />
<polygon fill="#fbe1a2" fill-opacity="0.501961" points="259,85 171,271 271,271" />
<polygon fill="#e9a424" fill-opacity="0.501961" points="-16,34 74,208 -16,216" />
<polygon fill="#ffffac" fill-opacity="0.501961" points="-16,4 66,-12 42,94" />
<polygon fill="#ffffbc" fill-opacity="0.501961" points="170,-16 196,54 271,19" />
<polygon fill="#f8c2cc" fill-opacity="0.501961" points="211,107 169,256 126,75" />
<polygon fill="#f49bbb" fill-opacity="0.501961" points="147,233 76,151 84,92" />
<polygon fill="#5b3047" fill-opacity="0.501961" points="51,42 111,139 158,60" />
<polygon fill="#0c0011" fill-opacity="0.501961" points="266,89 215,138 209,99" />
<polygon fill="#ffe46e" fill-opacity="0.501961" points="269,233 201,157 260,99" />
<polygon fill="#62437c" fill-opacity="0.501961" points="97,154 100,271 15,253" />
<polygon fill="#9d736e" fill-opacity="0.501961" points="210,72 154,-16 94,49" />
<polygon fill="#cdb6d5" fill-opacity="0.501961" points="253,271 97,262 268,203" />
<polygon fill="#573053" fill-opacity="0.501961" points="197,206 214,224 237,200" />
<polygon fill="#4f2a38" fill-opacity="0.501961" points="127,70 271,92 245,48" />
<polygon fill="#fdcb5f" fill-opacity="0.501961" points="54,129 -16,112 62,184" />
<polygon fill="#ffe68b" fill-opacity="0.501961" points="0,-14 -5,113 47,81" />
<polygon fill="#9e9cb4" fill-opacity="0.501961" points="56,271 42,217 -16,248" />
<polygon fill="#110020" fill-opacity="0.501961" points="-4,114 46,97 73,121" />
<polygon fill="#99591c" fill-opacity="0.501961" points="-15,244 -4,179 75,200" />
<polygon fill="#ba7090" fill-opacity="0.501961" points="52,144 178,207 130,267" />
<polygon fill="#000029" fill-opacity="0.501961" points="192,204 197,152 207,183" />
<polygon fill="#101f53" fill-opacity="0.501961" points="60,264 70,217 114,271" />
<polygon fill="#ffef9b" fill-opacity="0.501961" points="271,65 131,-16 271,-16" />
<polygon fill="#f6cac7" fill-opacity="0.501961" points="165,79 135,161 212,123" />
<polygon fill="#967567" fill-opacity="0.501961" points="136,64 8,107 67,67" />
<polygon fill="#db9da3" fill-opacity="0.501961" points="142,196 164,79 126,75" />
<polygon fill="#4e3845" fill-opacity="0.501961" points="47,77 126,59 67,5" />
<polygon fill="#000025" fill-opacity="0.501961" points="153,68 194,73 224,107" />
<polygon fill="#4c183d" fill-opacity="0.501961" points="128,132 91,123 121,84" />
<polygon fill="#ffe0a5" fill-opacity="0.501961" points="227,165 271,103 192,153" />
<polygon fill="#ffefbf" fill-opacity="0.501961" points="249,41 163,-16 195,49" />
<polygon fill="#b74b5c" fill-opacity="0.501961" points="125,112 109,143 137,205" />
<polygon fill="#d1a0a2" fill-opacity="0.501961" points="175,232 79,223 197,171" />
<polygon fill="#eebdc6" fill-opacity="0.501961" points="85,159 111,154 80,101" />
<polygon fill="#facc70" fill-opacity="0.501961" points="205,205 263,195 255,94" />
<polygon fill="#a88173" fill-opacity="0.501961" points="173,10 183,62 39,-16" />
<polygon fill="#a15c7f" fill-opacity="0.501961" points="100,158 109,268 57,178" />
<polygon fill="#ffe9ac" fill-opacity="0.501961" points="71,-11 39,80 -16,-3" />
<polygon fill="#ffccc3" fill-opacity="0.501961" points="210,232 168,268 181,201" />
<polygon fill="#6a3375" fill-opacity="0.501961" points="74,146 77,123 51,129" />
<polygon fill="#602135" fill-opacity="0.501961" points="47,93 71,115 105,76" />
<polygon fill="#6b628e" fill-opacity="0.501961" points="92,242 107,271 164,218" />
<polygon fill="#ffd2be" fill-opacity="0.501961" points="213,121 193,118 206,100" />
<polygon fill="#16174b" fill-opacity="0.501961" points="201,107 186,98 204,88" />
<polygon fill="#ebb355" fill-opacity="0.501961" points="-16,195 9,114 38,123" />
<polygon fill="#725354" fill-opacity="0.501961" points="55,38 76,-16 144,61" />
<polygon fill="#0f003b" fill-opacity="0.501961" points="120,251 106,242 116,268" />
<polygon fill="#211639" fill-opacity="0.501961" points="98,87 121,110 138,99" />
<polygon fill="#251126" fill-opacity="0.501961" points="239,120 207,72 215,136" />
<polygon fill="#351e41" fill-opacity="0.501961" points="207,210 203,157 187,205" />
<polygon fill="#b7afbb" fill-opacity="0.501961" points="248,205 214,271 223,210" />
<polygon fill="#d35330" fill-opacity="0.501961" points="205,137 200,122 212,130" />
<polygon fill="#943948" fill-opacity="0.501961" points="90,196 132,180 139,191" />
<polygon fill="#1b1737" fill-opacity="0.501961" points="110,56 74,56 45,79" />
<polygon fill="#674043" fill-opacity="0.501961" points="240,107 240,53 196,52" />
<polygon fill="#d4998b" fill-opacity="0.501961" points="195,204 222,223 205,247" />
<polygon fill="#d9c1ce" fill-opacity="0.501961" points="12,251 18,230 3,238" />
<polygon fill="#83606c" fill-opacity="0.501961" points="161,61 126,94 89,60" />
<polygon fill="#ffdf79" fill-opacity="0.501961" points="259,75 269,0 229,-4" />
<polygon fill="#cf8379" fill-opacity="0.501961" points="102,98 78,122 77,101" />
<polygon fill="#5c1c32" fill-opacity="0.501961" points="187,51 179,26 192,46" />
<polygon fill="#514861" fill-opacity="0.501961" points="34,233 17,271 21,232" />
<polygon fill="#e29195" fill-opacity="0.501961" points="125,165 121,238 101,154" />
<polygon fill="#ffcc6f" fill-opacity="0.501961" points="46,82 -5,56 4,108" />
<polygon fill="#031843" fill-opacity="0.501961" points="230,209 221,202 234,204" />
<polygon fill="#b8a3a7" fill-opacity="0.501961" points="57,212 39,216 30,237" />
<polygon fill="#613d1f" fill-opacity="0.501961" points="-16,252 16,226 -16,165" />
<polygon fill="#9e6633" fill-opacity="0.501961" points="206,163 212,187 204,203" />
<polygon fill="#f9c6be" fill-opacity="0.501961" points="132,141 234,137 149,176" />
<polygon fill="#c0863e" fill-opacity="0.501961" points="60,166 68,210 -15,189" />
<polygon fill="#393151" fill-opacity="0.501961" points="55,216 104,247 44,233" />
<polygon fill="#210713" fill-opacity="0.501961" points="37,107 58,131 12,112" />
<polygon fill="#e3b55d" fill-opacity="0.501961" points="271,135 271,221 234,200" />
<polygon fill="#393a63" fill-opacity="0.501961" points="42,269 43,239 34,239" />
<polygon fill="#5b4a6c" fill-opacity="0.501961" points="-16,114 -7,123 26,101" />
<polygon fill="#6a618a" fill-opacity="0.501961" points="163,77 187,84 198,106" />
<polygon fill="#fff7e1" fill-opacity="0.501961" points="219,222 223,208 228,213" />
<polygon fill="#e28c8c" fill-opacity="0.501961" points="143,122 127,142 143,200" />
<polygon fill="#ae7a90" fill-opacity="0.501961" points="84,236 156,238 75,207" />
<polygon fill="#000029" fill-opacity="0.501961" points="73,121 52,111 66,130" />
<polygon fill="#8b6567" fill-opacity="0.501961" points="271,83 228,47 246,46" />
<polygon fill="#fcd88e" fill-opacity="0.501961" points="205,159 264,92 218,205" />
<polygon fill="#ffe29f" fill-opacity="0.501961" points="62,9 43,77 -16,59" />
<polygon fill="#a76972" fill-opacity="0.501961" points="124,93 147,114 139,96" />
<polygon fill="#e1b060" fill-opacity="0.501961" points="9,164 39,124 66,184" />
<polygon fill="#381839" fill-opacity="0.501961" points="216,204 222,215 206,208" />
<polygon fill="#9b652f" fill-opacity="0.501961" points="69,211 65,190 0,217" />
<polygon fill="#d38a8f" fill-opacity="0.501961" points="94,185 102,156 153,178" />
<polygon fill="#361e29" fill-opacity="0.501961" points="250,97 200,98 240,118" />
<polygon fill="#a05a64" fill-opacity="0.501961" points="114,104 110,162 134,128" />
<polygon fill="#96658a" fill-opacity="0.501961" points="76,143 65,156 53,120" />
<polygon fill="#552739" fill-opacity="0.501961" points="61,113 130,70 70,85" />
<polygon fill="#dcdcd9" fill-opacity="0.501961" points="226,257 268,206 241,222" />
<polygon fill="#4f1631" fill-opacity="0.501961" points="129,183 116,189 134,188" />
<polygon fill="#91747b" fill-opacity="0.501961" points="146,64 155,45 222,53" />
<polygon fill="#956d5f" fill-opacity="0.501961" points="59,72 116,69 26,99" />
<polygon fill="#735351" fill-opacity="0.501961" points="50,61 79,17 56,35" />
<polygon fill="#edc7c8" fill-opacity="0.501961" points="163,80 143,98 208,163" />
<polygon fill="#92395a" fill-opacity="0.501961" points="91,189 117,190 66,207" />
<polygon fill="#e6a4b2" fill-opacity="0.501961" points="109,155 113,133 58,159" />
<polygon fill="#1f1123" fill-opacity="0.501961" points="204,162 207,190 195,175" />
<polygon fill="#f0989a" fill-opacity="0.501961" points="130,212 129,189 101,199" />
<polygon fill="#ffe9b7" fill-opacity="0.501961" points="201,49 164,-6 241,-4" />
<polygon fill="#fad47d" fill-opacity="0.501961" points="220,205 261,73 259,149" />
<polygon fill="#a18f98" fill-opacity="0.501961" points="218,250 239,233 243,211" />
<polygon fill="#9e7970" fill-opacity="0.501961" points="126,7 185,23 158,0" />
<polygon fill="#e1d5d6" fill-opacity="0.501961" points="240,210 231,213 235,199" />
<polygon fill="#893244" fill-opacity="0.501961" points="104,161 86,170 98,158" />
<polygon fill="#000428" fill-opacity="0.501961" points="213,105 196,79 160,68" />
<polygon fill="#ab8997" fill-opacity="0.501961" points="176,207 123,271 126,222" />
<polygon fill="#d64532" fill-opacity="0.501961" points="185,39 192,43 183,25" />
<polygon fill="#eec167" fill-opacity="0.501961" points="26,119 58,134 53,160" />
<polygon fill="#230d12" fill-opacity="0.501961" points="250,92 249,72 236,56" />
<polygon fill="#571a35" fill-opacity="0.501961" points="117,128 109,88 99,127" />
<polygon fill="#b35656" fill-opacity="0.501961" points="114,161 106,127 142,170" />
<polygon fill="#833847" fill-opacity="0.501961" points="81,97 74,128 65,103" />
<polygon fill="#e1bac2" fill-opacity="0.501961" points="126,120 136,104 143,121" />
<polygon fill="#0b224c" fill-opacity="0.501961" points="108,99 126,101 126,114" />
<polygon fill="#251e3e" fill-opacity="0.501961" points="146,60 123,61 132,56" />
<polygon fill="#2b1c4b" fill-opacity="0.501961" points="86,238 67,230 74,215" />
</g>
</svg>