<?xml version="1.0" encoding="UTF-8" standalone="no"?>
<svg
   xmlns:dc="http://purl.org/dc/elements/1.1/"
   xmlns:cc="http://creativecommons.org/ns#"
   xmlns:rdf="http://www.w3.org/1999/02/22-rdf-syntax-ns#"
   xmlns:svg="http://www.w3.org/2000/svg"
   xmlns="http://www.w3.org/2000/svg"
   xmlns:sodipodi="http://sodipodi.sourceforge.net/DTD/sodipodi-0.dtd"
   xmlns:inkscape="http://www.inkscape.org/namespaces/inkscape"
   viewBox="0 0 75 60.000004"
   version="1.1"
   id="svg4"
   sodipodi:docname="noun_placeholder_1876963.svg"
   width="60"
   height="48"
   inkscape:version="0.92.2 5c3e80d, 2017-08-06">
  <metadata
     id="metadata10">
    <rdf:RDF>
      <cc:Work
         rdf:about="">
        <dc:format>image/svg+xml</dc:format>
        <dc:type
           rdf:resource="http://purl.org/dc/dcmitype/StillImage" />
        <dc:title></dc:title>
      </cc:Work>
    </rdf:RDF>
  </metadata>
  <defs
     id="defs8" />
  <sodipodi:namedview
     pagecolor="#ffffff"
     bordercolor="#666666"
     borderopacity="1"
     objecttolerance="10"
     gridtolerance="10"
     guidetolerance="10"
     inkscape:pageopacity="0"
     inkscape:pageshadow="2"
     inkscape:window-width="871"
     inkscape:window-height="726"
     id="namedview6"
     showgrid="false"
     fit-margin-top="0"
     fit-margin-left="0"
     fit-margin-right="0"
     fit-margin-bottom="0"
     showborder="true"
     inkscape:showpageshadow="false"
     inkscape:zoom="6.9532167"
     inkscape:cx="30.974826"
     inkscape:cy="27.028072"
     inkscape:window-x="233"
     inkscape:window-y="437"
     inkscape:window-maximized="0"
     inkscape:current-layer="svg4" />
  <path
     d="M 75.000002,21.55122 A 21.562501,21.568311 0 0 0 35.831251,9.1166167 5.6250002,5.6265159 0 0 0 31.875001,7.4849264 H 5.6250002 A 5.6250002,5.6265159 0 0 0 0,13.111443 v 26.257071 a 5.6250002,5.6265159 0 0 0 5.6250002,5.626515 H 14.625 L 9.7687502,50.621543 A 5.6250002,5.6265159 0 0 0 14.0625,59.999076 h 37.968752 a 5.6250002,5.6265159 0 0 0 4.40625,-9.152461 l -6.431251,-8.027166 a 20.850001,20.855622 0 0 0 3.431251,0.300083 21.562501,21.568311 0 0 0 21.5625,-21.568312 z M 53.437502,5.6094214 A 15.9375,15.941797 0 1 1 37.500001,21.55122 15.95625,15.960552 0 0 1 53.437502,5.6094214 Z M 7.5000002,39.368514 a 1.8750001,1.8755053 0 0 1 -1.875,-1.875497 V 14.986948 a 1.8750001,1.8755053 0 0 1 1.875,-1.875505 H 30.000001 a 1.8750001,1.8755053 0 0 1 1.875,1.875505 v 9.715114 L 19.406251,39.368514 Z M 14.04375,54.372561 33.618751,31.322604 52.050002,54.372561 Z"
     id="path2"
     inkscape:connector-curvature="0"
     style="stroke-width:1.87525284" />
</svg>
